<svg width="96" height="96" xmlns="http://www.w3.org/2000/svg" xmlns:xlink="http://www.w3.org/1999/xlink" xml:space="preserve" overflow="hidden"><g transform="translate(-64 -171)"><path d="M96 226.686C100.275 226.688 103.742 223.223 103.744 218.948 103.746 214.673 100.281 211.206 96.006 211.204 91.7308 211.202 88.2637 214.667 88.262 218.942 88.262 218.943 88.262 218.944 88.262 218.945 88.2609 223.219 91.7249 226.685 95.999 226.686 95.9993 226.686 95.9997 226.686 96 226.686ZM96 213.205C99.1707 213.203 101.742 215.772 101.744 218.943 101.746 222.114 99.1767 224.685 96.006 224.687 92.8353 224.689 90.2637 222.12 90.262 218.949 90.262 218.948 90.262 218.946 90.262 218.945 90.2648 215.777 92.8318 213.209 96 213.205Z"/><path d="M110.134 232.825C107.861 231.071 105.255 229.796 102.475 229.077 100.377 228.434 98.1947 228.105 96 228.1 93.8121 228.136 91.6389 228.464 89.538 229.076 86.7876 229.875 84.1954 231.141 81.875 232.82 80.7135 233.734 80.025 235.122 80 236.6L80 244 112 244 112 236.6C111.977 235.125 111.291 233.739 110.134 232.825ZM110 242 82 242 82 236.6C82.019 235.744 82.4177 234.941 83.088 234.408 85.2091 232.888 87.5711 231.736 90.075 231 92.0013 230.438 93.9938 230.135 96 230.1 98.0046 230.107 99.9972 230.41 101.913 231 104.438 231.646 106.806 232.797 108.875 234.382 109.564 234.915 109.977 235.729 110 236.6Z"/><path d="M120 218 144 218 144 220 120 220Z"/><path d="M120 226 144 226 144 228 120 228Z"/><path d="M120 234 144 234 144 236 120 236Z"/><path d="M120 242 144 242 144 244 120 244Z"/><path d="M148 197 119 197 119 189C119 186.791 117.209 185 115 185L109 185C106.791 185 105 186.791 105 189L105 197 76 197C73.7909 197 72 198.791 72 201L72 249C72 251.209 73.7909 253 76 253L148 253C150.209 253 152 251.209 152 249L152 201C152 198.791 150.209 197 148 197ZM107 189C107 187.895 107.895 187 109 187L115 187C116.105 187 117 187.895 117 189L117 200C117 201.105 116.105 202 115 202L109 202C107.895 202 107 201.105 107 200ZM150 249C150 250.105 149.105 251 148 251L76 251C74.8954 251 74 250.105 74 249L74 201C74 199.895 74.8954 199 76 199L105 199 105 200C105 202.209 106.791 204 109 204L115 204C117.209 204 119 202.209 119 200L119 199 148 199C149.105 199 150 199.895 150 201Z"/></g></svg>