<svg width="96" height="96" xmlns="http://www.w3.org/2000/svg" xmlns:xlink="http://www.w3.org/1999/xlink" xml:space="preserve" overflow="hidden"><g transform="translate(-49 -195)"><path d="M96.54 234.5C91.5694 234.5 87.54 238.529 87.54 243.5 87.54 248.471 91.5694 252.5 96.54 252.5 101.511 252.5 105.54 248.471 105.54 243.5 105.54 238.529 101.511 234.5 96.54 234.5ZM96.54 250.5C92.674 250.5 89.54 247.366 89.54 243.5 89.54 239.634 92.674 236.5 96.54 236.5 100.406 236.5 103.54 239.634 103.54 243.5 103.536 247.364 100.404 250.496 96.54 250.5Z"/><path d="M63.575 234.5C58.6044 234.5 54.575 238.529 54.575 243.5 54.575 248.471 58.6044 252.5 63.575 252.5 68.5456 252.5 72.575 248.471 72.575 243.5 72.575 238.529 68.5456 234.5 63.575 234.5ZM63.575 250.5C59.709 250.5 56.575 247.366 56.575 243.5 56.575 239.634 59.709 236.5 63.575 236.5 67.441 236.5 70.575 239.634 70.575 243.5 70.5706 247.364 67.4392 250.496 63.575 250.5Z"/><path d="M129.506 234.5C124.535 234.5 120.506 238.529 120.506 243.5 120.506 248.471 124.535 252.5 129.506 252.5 134.477 252.5 138.506 248.471 138.506 243.5 138.506 238.529 134.477 234.5 129.506 234.5ZM129.506 250.5C125.64 250.5 122.506 247.366 122.506 243.5 122.506 239.634 125.64 236.5 129.506 236.5 133.372 236.5 136.506 239.634 136.506 243.5 136.502 247.364 133.37 250.496 129.506 250.5Z"/></g></svg>