<svg width="96" height="96" xmlns="http://www.w3.org/2000/svg" xmlns:xlink="http://www.w3.org/1999/xlink" xml:space="preserve" overflow="hidden"><g transform="translate(-64 -12)"><path d="M107.5 50.011C101.977 39.8086 89.2294 36.0151 79.027 41.538 68.8246 47.0608 65.0311 59.8086 70.554 70.011 76.0768 80.2134 88.8246 84.0069 99.027 78.484 102.614 76.5422 105.558 73.5981 107.5 70.011L114 70.011 118 66.011 122 70.011 128.5 63.511 135 70.011 141.5 63.511 148 70.011 156 60.011 148 50.011ZM147.836 67.021 142.918 62.1 141.5 60.686 140.089 62.1 135 67.188 129.918 62.1 128.5 60.686 127.089 62.1 122 67.188 119.417 64.6 118 63.187 116.588 64.6 113.174 68.015 106.315 68.015 105.746 69.058C100.75 78.2897 89.2167 81.7237 79.985 76.728 70.7533 71.7323 67.3194 60.1987 72.3151 50.967 77.3107 41.7353 88.8443 38.3013 98.076 43.297 101.324 45.0544 103.989 47.7196 105.746 50.967L106.315 52.01 147.043 52.01 150.233 56 110 56 110 58 151.833 58 153.443 60.013Z"/><path d="M80 54.012C76.6863 54.012 74 56.6983 74 60.012 74 63.3257 76.6863 66.012 80 66.012 83.3137 66.012 86 63.3257 86 60.012 85.9896 56.7026 83.3094 54.0224 80 54.012ZM80 64.012C77.7909 64.012 76 62.2211 76 60.012 76 57.8029 77.7909 56.012 80 56.012 82.2091 56.012 84 57.8029 84 60.012 83.9983 62.2209 82.2089 64.0117 80 64.015Z"/></g></svg>