<svg width="96" height="96" xmlns="http://www.w3.org/2000/svg" xmlns:xlink="http://www.w3.org/1999/xlink" xml:space="preserve" overflow="hidden"><g transform="translate(-64 -60)"><path d="M99.931 104.728 98.517 106.142 108.782 116.408 126.483 98.707 125.069 97.293 108.782 113.58 99.931 104.728Z"/><path d="M142.532 81.9C131.915 81.0417 122.02 76.1801 114.853 68.3 113.5 66.731 111.132 66.5556 109.563 67.9082 109.423 68.029 109.292 68.1599 109.171 68.3 102.005 76.1797 92.1083 81.0373 81.491 81.887 79.5158 82.0776 78.0136 83.7457 78.03 85.73L78.03 95.413C78.03 116.476 91.385 135.742 109.921 147.663 111.193 148.486 112.83 148.486 114.102 147.663 132.639 135.742 145.993 116.486 145.993 95.423L145.993 85.742C146.012 83.7568 144.508 82.0874 142.532 81.9ZM143.993 95.426C143.993 114.611 132.415 133.511 113.021 145.983 112.408 146.382 111.616 146.382 111.003 145.983 91.609 133.51 80.03 114.606 80.03 95.415L80.03 85.732C80.0122 84.7891 80.7149 83.9876 81.652 83.882 92.7779 83.0011 103.149 77.9106 110.652 69.648 110.992 69.2495 111.485 69.0139 112.008 69 112.534 69.0138 113.03 69.2492 113.374 69.648 120.878 77.9099 131.248 83.0032 142.374 83.892 143.311 83.9972 144.015 84.7988 143.997 85.742Z"/><path d="M86.03 89.4 86.03 95.418C86.03 111.823 95.693 128.118 112.012 139.445 128.33 128.112 137.993 111.823 137.993 95.425L137.993 89.4C128.276 87.8542 119.236 83.4649 112.011 76.786 104.788 83.4671 95.7471 87.8567 86.03 89.4ZM135.993 95.428C135.993 110.658 127.055 126.107 112.012 136.993 96.969 126.1 88.03 110.652 88.03 95.415L88.03 91.075C96.9011 89.3693 105.17 85.3664 112.01 79.466 118.852 85.367 127.121 89.3718 135.993 91.081Z"/></g></svg>